<svg width="80" height="2830" viewBox="0 0 80 2830" fill="none" xmlns="http://www.w3.org/2000/svg">
<path opacity="0.4" d="M-4.11479 1C-1.78542 19.6285 -2.91683 64.9409 -26.0774 97.1631C-55.0281 137.441 -124.909 178.222 -117.422 237.128C-109.935 296.034 -4.11479 432.475 -4.11479 465.704C-4.11479 498.933 -117.422 649.975 -117.422 705.357C-117.422 760.739 65.5205 711.525 65.5205 861.5C65.5205 1011.47 72.2499 1070.88 -4.11479 1147.91C-80.4795 1224.93 -117.422 1180.63 -117.422 1265.72C-117.422 1350.81 -182.805 1632.22 -80.4795 1673C98.7154 1744.42 90.9772 1849.69 65.5205 1894C40.0639 1938.31 -40.4795 2062 -95.4593 2168.95C-127.46 2231.2 -43.3465 2624.46 -26.0774 2681.48C-4.11479 2754 -65.0111 2798.29 -95.4593 2829" stroke="#164544" stroke-dasharray="6 6"/>
</svg>
