<svg width="17" height="19" viewBox="0 0 17 19" fill="none" xmlns="http://www.w3.org/2000/svg">
<g id="Group">
<path id="Vector" d="M8.28521 7.74661C10.155 7.74661 11.6708 6.23084 11.6708 4.36105C11.6708 2.49126 10.155 0.975499 8.28521 0.975499C6.41542 0.975499 4.89966 2.49126 4.89966 4.36105C4.89966 6.23084 6.41542 7.74661 8.28521 7.74661ZM8.28521 8.72211C5.87667 8.72211 3.92416 6.7696 3.92416 4.36105C3.92416 1.95251 5.87667 0 8.28521 0C10.6938 0 12.6463 1.95251 12.6463 4.36105C12.6463 6.7696 10.6938 8.72211 8.28521 8.72211Z" fill="black"/>
<path id="Vector_2" d="M16.5669 17.7207C16.5801 17.9898 16.3726 18.2185 16.1036 18.2317C15.8345 18.2449 15.6057 18.0375 15.5925 17.7684C15.4022 13.8838 12.1902 10.8166 8.2852 10.8166C4.35724 10.8166 1.1341 13.9187 0.975104 17.8301C0.964162 18.0992 0.7371 18.3086 0.467946 18.2976C0.198792 18.2867 -0.0105312 18.0596 0.000410117 17.7905C0.180647 13.3567 3.83338 9.84106 8.2852 9.84106C12.711 9.84106 16.3511 13.3171 16.5669 17.7207Z" fill="black"/>
</g>
</svg>
