<svg width="16" height="21" viewBox="0 0 16 21" fill="none" xmlns="http://www.w3.org/2000/svg">
    <path id="CartVector" d="M15.9064 20.8555C15.9402 20.8193 15.9659 20.7759 15.9817 20.7286C15.9976 20.6812 16.0032 20.6308 15.9982 20.581L14.4649 4.94118C14.4563 4.853 14.4162 4.77116 14.3524 4.71122C14.2885 4.65128 14.2054 4.61743 14.1187 4.6161H11.7093V3.81424C11.7093 2.80264 11.3162 1.83247 10.6165 1.11717C9.91688 0.401856 8.96794 0 7.97848 0C6.98901 0 6.04008 0.401856 5.34042 1.11717C4.64076 1.83247 4.2477 2.80264 4.2477 3.81424V4.6161H1.88063C1.79397 4.61743 1.7108 4.65128 1.64696 4.71122C1.58312 4.77116 1.54307 4.853 1.53441 4.94118L0.00111397 20.6027C-0.00275217 20.6528 0.00346962 20.7033 0.0193956 20.7509C0.0353216 20.7985 0.0606146 20.8422 0.0937153 20.8795C0.126816 20.9167 0.167023 20.9466 0.211858 20.9673C0.256693 20.988 0.305206 20.9992 0.354407 21H15.6449C15.6964 20.9978 15.7467 20.9836 15.792 20.9586C15.8373 20.9336 15.8764 20.8983 15.9064 20.8555ZM4.95429 3.81424C4.95429 2.99423 5.27291 2.20781 5.84005 1.62798C6.4072 1.04814 7.17641 0.722394 7.97848 0.722394C8.78054 0.722394 9.54976 1.04814 10.1169 1.62798C10.684 2.20781 11.0027 2.99423 11.0027 3.81424V4.6161H4.95429V3.81424ZM0.714767 20.2559L2.1986 5.33849H4.2477V8.01135C4.2477 8.10715 4.28492 8.19902 4.35118 8.26676C4.41743 8.33449 4.50729 8.37255 4.60099 8.37255C4.69469 8.37255 4.78455 8.33449 4.85081 8.26676C4.91707 8.19902 4.95429 8.10715 4.95429 8.01135V5.33849H11.0027V8.01135C11.0027 8.10715 11.0399 8.19902 11.1061 8.26676C11.1724 8.33449 11.2623 8.37255 11.356 8.37255C11.4497 8.37255 11.5395 8.33449 11.6058 8.26676C11.672 8.19902 11.7093 8.10715 11.7093 8.01135V5.33849H13.829L15.2846 20.2559H0.714767Z" fill="black"/>
</svg>
