<svg width="19" height="18" viewBox="0 0 19 18" fill="none" xmlns="http://www.w3.org/2000/svg">
<g id="Vector">
<path d="M9.5 0C14.7452 0 19 4.03086 19 9C19 13.9666 14.7426 18 9.5 18C4.2548 18 0 13.9691 0 9C0 4.03086 4.25215 0 9.5 0ZM9.5 7.02586C8.98235 7.02586 8.56505 6.63053 8.56505 6.14012C8.56505 5.64971 8.98235 5.25438 9.5 5.25438C10.015 5.25438 10.4349 5.64971 10.4349 6.14012C10.4349 6.63053 10.015 7.02586 9.5 7.02586ZM10.0758 12.7481C10.0758 13.4637 8.92424 13.4637 8.92424 12.7481V8.56964C8.92424 7.85404 10.0758 7.85404 10.0758 8.56964V12.7481ZM9.5 1.09091C4.8913 1.09091 1.15151 4.63386 1.15151 9C1.15151 13.3686 4.88866 16.9091 9.5 16.9091C14.1087 16.9091 17.8485 13.3686 17.8485 9C17.8485 4.63386 14.1087 1.09091 9.5 1.09091Z" fill="#6FBA81"/>
<path d="M9.5 0C14.7452 0 19 4.03086 19 9C19 13.9666 14.7426 18 9.5 18C4.2548 18 0 13.9691 0 9C0 4.03086 4.25215 0 9.5 0ZM9.5 7.02586C8.98235 7.02586 8.56505 6.63053 8.56505 6.14012C8.56505 5.64971 8.98235 5.25438 9.5 5.25438C10.015 5.25438 10.4349 5.64971 10.4349 6.14012C10.4349 6.63053 10.015 7.02586 9.5 7.02586ZM10.0758 12.7481C10.0758 13.4637 8.92424 13.4637 8.92424 12.7481V8.56964C8.92424 7.85404 10.0758 7.85404 10.0758 8.56964V12.7481ZM9.5 1.09091C4.8913 1.09091 1.15151 4.63386 1.15151 9C1.15151 13.3686 4.88866 16.9091 9.5 16.9091C14.1087 16.9091 17.8485 13.3686 17.8485 9C17.8485 4.63386 14.1087 1.09091 9.5 1.09091Z" fill="#6FBA81"/>
<path d="M9.5 0C14.7452 0 19 4.03086 19 9C19 13.9666 14.7426 18 9.5 18C4.2548 18 0 13.9691 0 9C0 4.03086 4.25215 0 9.5 0ZM9.5 7.02586C8.98235 7.02586 8.56505 6.63053 8.56505 6.14012C8.56505 5.64971 8.98235 5.25438 9.5 5.25438C10.015 5.25438 10.4349 5.64971 10.4349 6.14012C10.4349 6.63053 10.015 7.02586 9.5 7.02586ZM10.0758 12.7481C10.0758 13.4637 8.92424 13.4637 8.92424 12.7481V8.56964C8.92424 7.85404 10.0758 7.85404 10.0758 8.56964V12.7481ZM9.5 1.09091C4.8913 1.09091 1.15151 4.63386 1.15151 9C1.15151 13.3686 4.88866 16.9091 9.5 16.9091C14.1087 16.9091 17.8485 13.3686 17.8485 9C17.8485 4.63386 14.1087 1.09091 9.5 1.09091Z" fill="#6FBA81"/>
</g>
</svg>
