<svg width="18" height="18" viewBox="0 0 18 18" fill="none" xmlns="http://www.w3.org/2000/svg">
    <g id="Group">
        <g id="Vector">
            <mask id="path-1-inside-1_287_8441" fill="white">
                <path d="M8.00916 0.878784C4.1251 0.878784 1 4.02621 1 7.88794C1 11.7497 4.14742 14.8971 8.00916 14.8971C9.83957 14.8971 11.5361 14.1828 12.7861 12.9997L17.3621 17.5758L17.7193 17.2186L13.1656 12.6649C14.3263 11.4148 15.063 9.74068 15.063 7.88794C15.0406 4.02621 11.8932 0.878784 8.00916 0.878784ZM8.00916 14.406C4.41529 14.406 1.51341 11.4818 1.51341 7.91026C1.51341 4.33872 4.43761 1.41452 8.00916 1.41452C11.5807 1.41452 14.5049 4.33872 14.5049 7.91026C14.5049 11.4818 11.603 14.406 8.00916 14.406Z"/>
            </mask>
            <path d="M8.00916 0.878784C4.1251 0.878784 1 4.02621 1 7.88794C1 11.7497 4.14742 14.8971 8.00916 14.8971C9.83957 14.8971 11.5361 14.1828 12.7861 12.9997L17.3621 17.5758L17.7193 17.2186L13.1656 12.6649C14.3263 11.4148 15.063 9.74068 15.063 7.88794C15.0406 4.02621 11.8932 0.878784 8.00916 0.878784ZM8.00916 14.406C4.41529 14.406 1.51341 11.4818 1.51341 7.91026C1.51341 4.33872 4.43761 1.41452 8.00916 1.41452C11.5807 1.41452 14.5049 4.33872 14.5049 7.91026C14.5049 11.4818 11.603 14.406 8.00916 14.406Z" fill="black"/>
            <path d="M12.7861 12.9997L19.8572 5.92864L12.978 -0.950483L5.91225 5.73678L12.7861 12.9997ZM17.3621 17.5758L10.2911 24.6468L17.3622 31.7179L24.4332 24.6468L17.3621 17.5758ZM17.7193 17.2186L24.7904 24.2896L31.8614 17.2186L24.7904 10.1475L17.7193 17.2186ZM13.1656 12.6649L5.83764 5.86037L-0.71952 12.9219L6.09451 19.7359L13.1656 12.6649ZM15.063 7.88794H25.063V7.85904L25.0628 7.83014L15.063 7.88794ZM8.00916 -9.12122C-1.41848 -9.12122 -9 -1.47589 -9 7.88794H11C11 9.5283 9.66868 10.8788 8.00916 10.8788V-9.12122ZM-9 7.88794C-9 17.2725 -1.37542 24.8971 8.00916 24.8971V4.89709C9.67027 4.89709 11 6.22682 11 7.88794H-9ZM8.00916 24.8971C12.4612 24.8971 16.6003 23.1583 19.6599 20.2626L5.91225 5.73678C6.47177 5.20723 7.21793 4.89709 8.00916 4.89709V24.8971ZM5.71503 20.0708L10.2911 24.6468L24.4332 10.5047L19.8572 5.92864L5.71503 20.0708ZM24.4332 24.6468L24.7904 24.2896L10.6482 10.1475L10.2911 10.5047L24.4332 24.6468ZM24.7904 10.1475L20.2366 5.59381L6.09451 19.7359L10.6482 24.2897L24.7904 10.1475ZM20.4935 19.4694C23.2384 16.5134 25.063 12.4542 25.063 7.88794H5.06296C5.06296 7.02713 5.41425 6.31632 5.83764 5.86037L20.4935 19.4694ZM25.0628 7.83014C25.0087 -1.51868 17.4066 -9.12122 8.00916 -9.12122V10.8788C6.37982 10.8788 5.07252 9.57109 5.06312 7.94574L25.0628 7.83014ZM8.00916 4.40601C9.96049 4.40601 11.5134 5.98134 11.5134 7.91026H-8.48659C-8.48659 16.9823 -1.12991 24.406 8.00916 24.406V4.40601ZM11.5134 7.91026C11.5134 9.86157 9.96046 11.4145 8.00916 11.4145V-8.58548C-1.08523 -8.58548 -8.48659 -1.18413 -8.48659 7.91026H11.5134ZM8.00916 11.4145C6.05785 11.4145 4.5049 9.86157 4.5049 7.91026H24.5049C24.5049 -1.18413 17.1035 -8.58548 8.00916 -8.58548V11.4145ZM4.5049 7.91026C4.5049 5.98134 6.05782 4.40601 8.00916 4.40601V24.406C17.1482 24.406 24.5049 16.9823 24.5049 7.91026H4.5049Z" fill="black" mask="url(#path-1-inside-1_287_8441)"/>
        </g>
    <path id="Vector_2" d="M17.3091 17.6288L17.3621 17.6818L17.4152 17.6288L17.7723 17.2716L17.8254 17.2186L17.7723 17.1656L13.2695 12.6627C14.4138 11.4057 15.138 9.73484 15.138 7.88794L15.138 7.88751C15.1154 3.98462 11.9346 0.803784 8.00916 0.803784C4.08352 0.803784 0.925 3.98494 0.925 7.88794C0.925 11.7911 4.106 14.9721 8.00916 14.9721C9.83337 14.9721 11.5261 14.2702 12.7844 13.1041L17.3091 17.6288ZM8.00916 14.331C4.45688 14.331 1.58841 11.4406 1.58841 7.91026C1.58841 4.38014 4.47903 1.48952 8.00916 1.48952C11.5393 1.48952 14.4299 4.38014 14.4299 7.91026C14.4299 11.4406 11.5614 14.331 8.00916 14.331Z" fill="black" stroke="black" stroke-width="0.15"/>
    </g>
</svg>
