<svg width="27" height="31" viewBox="0 0 27 31" fill="none" xmlns="http://www.w3.org/2000/svg">
<g id="Group 41">
<path id="Vector" d="M26.1 3.60001H0.9C0.661305 3.60001 0.432387 3.69483 0.263604 3.86361C0.0948213 4.03239 0 4.26131 0 4.50001C0 4.7387 0.0948213 4.96762 0.263604 5.1364C0.432387 5.30518 0.661305 5.40001 0.9 5.40001H3.6V26.1C3.6 26.691 3.7164 27.2761 3.94254 27.8221C4.16869 28.368 4.50016 28.8641 4.91802 29.282C5.33588 29.6999 5.83196 30.0313 6.37792 30.2575C6.92389 30.4836 7.50905 30.6 8.1 30.6H18.9C19.4909 30.6 20.0761 30.4836 20.6221 30.2575C21.168 30.0313 21.6641 29.6999 22.082 29.282C22.4998 28.8641 22.8313 28.368 23.0575 27.8221C23.2836 27.2761 23.4 26.691 23.4 26.1V5.40001H26.1C26.3387 5.40001 26.5676 5.30518 26.7364 5.1364C26.9052 4.96762 27 4.7387 27 4.50001C27 4.26131 26.9052 4.03239 26.7364 3.86361C26.5676 3.69483 26.3387 3.60001 26.1 3.60001ZM21.6 26.1C21.6 26.8161 21.3155 27.5028 20.8092 28.0092C20.3028 28.5155 19.6161 28.8 18.9 28.8H8.1C7.38392 28.8 6.69716 28.5155 6.19081 28.0092C5.68446 27.5028 5.4 26.8161 5.4 26.1V5.40001H21.6V26.1Z" fill="#164544"/>
<path id="Vector_2" d="M9.9 1.8H17.1C17.3387 1.8 17.5676 1.70518 17.7364 1.5364C17.9052 1.36761 18 1.13869 18 0.9C18 0.661305 17.9052 0.432387 17.7364 0.263604C17.5676 0.0948213 17.3387 0 17.1 0H9.9C9.66131 0 9.43239 0.0948213 9.2636 0.263604C9.09482 0.432387 9 0.661305 9 0.9C9 1.13869 9.09482 1.36761 9.2636 1.5364C9.43239 1.70518 9.66131 1.8 9.9 1.8Z" fill="#164544"/>
<path id="Vector_3" d="M10.8004 23.4C11.0391 23.4 11.268 23.3052 11.4368 23.1364C11.6056 22.9676 11.7004 22.7387 11.7004 22.5V11.7C11.7004 11.4613 11.6056 11.2324 11.4368 11.0636C11.268 10.8948 11.0391 10.8 10.8004 10.8C10.5617 10.8 10.3328 10.8948 10.164 11.0636C9.99521 11.2324 9.90039 11.4613 9.90039 11.7V22.5C9.90039 22.7387 9.99521 22.9676 10.164 23.1364C10.3328 23.3052 10.5617 23.4 10.8004 23.4Z" fill="#164544"/>
<path id="Vector_4" d="M16.1998 23.4C16.4385 23.4 16.6674 23.3052 16.8362 23.1364C17.005 22.9676 17.0998 22.7387 17.0998 22.5V11.7C17.0998 11.4613 17.005 11.2324 16.8362 11.0636C16.6674 10.8948 16.4385 10.8 16.1998 10.8C15.9611 10.8 15.7322 10.8948 15.5634 11.0636C15.3946 11.2324 15.2998 11.4613 15.2998 11.7V22.5C15.2998 22.7387 15.3946 22.9676 15.5634 23.1364C15.7322 23.3052 15.9611 23.4 16.1998 23.4Z" fill="#164544"/>
</g>
</svg>
